Language : English

Screens : 
[url]http://www.piczend.com/image/1359504332_vlcsnap-2013-01-29-16h02m31s146.png[/url]
[url]http://www.piczend.com/image/1359504332_vlcsnap-2013-01-29-16h02m35s193.png[/url]
[url]http://www.piczend.com/image/1359504332_vlcsnap-2013-01-29-16h02m44s20.png[/url]
[url]http://www.piczend.com/image/1359504332_vlcsnap-2013-01-29-16h02m55s129.png[/url]
[url]http://www.piczend.com/image/1359504332_vlcsnap-2013-01-29-16h03m04s223.png[/url]


Info:
Format : MPEG-4
Format profile : Base Media / Version 2
Codec ID : mp42
File size : 2.52 GiB
Duration : 2h 49mn
Overall bit rate mode : Variable
Overall bit rate : 2 129 Kbps
Encoded date : UTC 2013-01-29 05:21:08
Tagged date : UTC 2013-01-29 06:46:56
Writing application : HandBrake 0.9.8 2012071700

Video
ID : 1
Format : AVC
Format/Info : Advanced Video Codec
Format profile : High@L3.0
Format settings, CABAC : Yes
Format settings, ReFrames : 4 frames
Codec ID : avc1
Codec ID/Info : Advanced Video Coding
Duration : 2h 49mn
Bit rate mode : Variable
Bit rate : 1 804 Kbps
Width : 704 pixels
Height : 400 pixels
Display aspect ratio : 16:9
Original display aspect ratio : 16:9
Frame rate mode : Constant
Frame rate : 29.970 fps
Color space : YUV
Chroma subsampling : 4:2:0
Bit depth : 8 bits
Scan type : Progressive
Bits/(Pixel*Frame) : 0.214
Stream size : 2.14 GiB (85%)
Writing library : x264 core 120
Encoding settings : cabac=1 / ref=3 / deblock=1:0:0 / analyse=0x3:0x113 / me=hex / subme=7 / psy=1 / psy_rd=1.00:0.00 / mixed_ref=1 / me_range=16 / chroma_me=1 / trellis=1 / 8x8dct=1 / cqm=0 / deadzone=21,11 / fast_pskip=1 / chroma_qp_offset=-2 / threads=6 / sliced_threads=0 / nr=0 / decimate=1 / interlaced=0 / bluray_compat=0 / constrained_intra=0 / bframes=3 / b_pyramid=2 / b_adapt=1 / b_bias=0 / direct=1 / weightb=1 / open_gop=0 / weightp=2 / keyint=300 / keyint_min=30 / scenecut=40 / intra_refresh=0 / rc_lookahead=40 / rc=crf / mbtree=1 / crf=20.0 / qcomp=0.60 / qpmin=3 / qpmax=69 / qpstep=4 / ip_ratio=1.40 / aq=1:1.00
Encoded date : UTC 2013-01-29 05:21:08
Tagged date : UTC 2013-01-29 06:46:56
Color primaries : BT.601 NTSC
Transfer characteristics : BT.709
Matrix coefficients : BT.601

Audio #1
ID : 2
Format : AAC
Format/Info : Advanced Audio Codec
Format profile : LC
Codec ID : 40
Duration : 2h 49mn
Bit rate mode : Variable
Bit rate : 160 Kbps
Maximum bit rate : 202 Kbps
Channel(s) : 2 channels
Channel positions : Front: L R
Sampling rate : 48.0 KHz
Compression mode : Lossy
Delay relative to video : 67ms
Stream size : 194 MiB (8%)
Encoded date : UTC 2013-01-29 05:21:08
Tagged date : UTC 2013-01-29 06:46:56

Audio #2
ID : 3
Format : AC-3
Format/Info : Audio Coding 3
Mode extension : CM (complete main)
Format settings, Endianness : Big
Codec ID : ac-3
Duration : 2h 49mn
Bit rate mode : Constant
Bit rate : 160 Kbps
Channel(s) : 2 channels
Channel positions : Front: L R
Sampling rate : 48.0 KHz
Bit depth : 16 bits
Compression mode : Lossy
Delay relative to video : 67ms
Stream size : 194 MiB (8%)
Encoded date : UTC 2013-01-29 05:21:08
Tagged date : UTC 2013-01-29 06:46:56